<svg xmlns="http://www.w3.org/2000/svg" width="14.798" height="14.798" viewBox="0 0 14.798 14.798"><defs><style>.a{fill:#fff;}</style></defs><path class="a" d="M10.714,0H4.084A4.088,4.088,0,0,0,0,4.084v6.631A4.088,4.088,0,0,0,4.084,14.8h6.631A4.088,4.088,0,0,0,14.8,10.715V4.084A4.088,4.088,0,0,0,10.714,0Zm2.771,10.715a2.774,2.774,0,0,1-2.771,2.771H4.084a2.774,2.774,0,0,1-2.771-2.771V4.084A2.774,2.774,0,0,1,4.084,1.313h6.631a2.774,2.774,0,0,1,2.771,2.771v6.631Z" transform="translate(0 0)"/><path class="a" d="M44.781,40.97a3.813,3.813,0,1,0,3.813,3.813A3.817,3.817,0,0,0,44.781,40.97Zm0,6.313a2.5,2.5,0,1,1,2.5-2.5A2.5,2.5,0,0,1,44.781,47.283Z" transform="translate(-37.382 -37.384)"/><path class="a" d="M119.884,28.251a.962.962,0,1,0,.681.282A.967.967,0,0,0,119.884,28.251Z" transform="translate(-108.512 -25.778)"/></svg>