<svg xmlns="http://www.w3.org/2000/svg" width="16.516" height="15.782" viewBox="0 0 16.516 15.782"><defs><style>.a{fill:#fff;}</style></defs><path class="a" d="M16.516,19.234V25.34h-3.54v-5.7c0-1.431-.512-2.408-1.793-2.408A1.937,1.937,0,0,0,9.366,18.53a2.422,2.422,0,0,0-.117.863V25.34H5.708s.048-9.649,0-10.648H9.248V16.2l-.023.034h.023V16.2a3.516,3.516,0,0,1,3.191-1.76C14.769,14.441,16.516,15.963,16.516,19.234ZM2,9.558a1.845,1.845,0,1,0-.047,3.68H1.98A1.846,1.846,0,1,0,2,9.558ZM.21,25.34H3.75V14.691H.21Z" transform="translate(0 -9.558)"/></svg>