<svg xmlns="http://www.w3.org/2000/svg" xmlns:xlink="http://www.w3.org/1999/xlink" width="1550.032" height="2961.033" viewBox="0 0 1550.032 2961.033"><defs><style>.a{stroke:#000;stroke-miterlimit:10;stroke-width:4px;fill:url(#a);}</style><linearGradient id="a" x1="0.5" x2="0.5" y2="1" gradientUnits="objectBoundingBox"><stop offset="0" stop-color="#f7f5f2"/><stop offset="1" stop-color="#f2ede2"/></linearGradient></defs><path class="a" d="M0,2957V414.406s0,0,0,0v-54.9H.388C1.113,249.763,2.393,13.614,0,12.071c0,0,182.928-25.482,258.8,107.959,0,0,257.763-17.434,311.811,142.829,0,0,145.511-24.81,245.29,23.469,0,0,68.6-46.268,168.377-50.292,0,0,31.182-91.866,219.307-97.9,0,0,4.157-101.925,223.463-106.619,0,0,34.3-30.175,115.371-31.516V414.406h-.449V2957Z" transform="translate(5.61 2.033)"/></svg>