<svg xmlns="http://www.w3.org/2000/svg" width="64.673" height="41.315" viewBox="0 0 64.673 41.315"><defs><style>.a{fill:#fff;}</style></defs><g transform="translate(373.083 -430.485) rotate(109)"><g transform="translate(517.886 147.858)"><path class="a" d="M529.8,173.232a3.93,3.93,0,0,1,.3.746c.031.117.05.242.085.454l.1.564.384,2.259.76,4.516,1.533,9.025c1.038,6.014,2.069,12.028,3.149,18.036l-1.209-.678,21.327-9.346-.622,2.135c-1.748-2.383-3.5-4.766-5.167-7.211q-2.525-3.649-4.906-7.4c-1.6-2.488-3.127-5.028-4.612-7.588-.726-1.29-1.45-2.582-2.157-3.882-.688-1.312-1.379-2.62-2.042-3.945l1.541.626c-1.327.316-2.661.612-4.064.873Zm-1.2-.733c1.359-.575,2.785-1.19,4.285-1.78s3.049-1.172,4.614-1.72a1.252,1.252,0,0,1,1.477.521l.065.105,4.633,7.477,4.649,7.46q2.351,3.713,4.752,7.4c1.617,2.446,3.2,4.913,4.853,7.342l.033.049a1.4,1.4,0,0,1-.372,1.939,1.475,1.475,0,0,1-.283.148l-21.736,8.351-.035.013a.871.871,0,0,1-1.125-.5.9.9,0,0,1-.049-.191c-.849-6.04-1.781-12.07-2.73-18.1-.464-3.014-.986-6.019-1.485-9.027-.25-1.5-.516-3.005-.789-4.5l-.41-2.248-.1-.561c-.031-.164-.082-.414-.121-.671A11.378,11.378,0,0,1,528.594,172.5Z" transform="translate(-521.122 -154.226)"/><path class="a" d="M518.382,167.723l12.169-3.775c2.016-.655,4.027-1.318,6.026-2.006s3.991-1.4,5.9-2.231l-.121,1.451c-2.876-1.712-5.788-3.381-8.66-5.143l-8.522-5.234,2.28-.638c-.694,1.527-1.372,3.049-2.007,4.574s-1.2,3.068-1.793,4.655l-.939,2.374c-.34.786-.673,1.576-1.035,2.353a45.79,45.79,0,0,1-2.417,4.55.715.715,0,0,1-1.31-.516v-.006c.345-1.683.791-3.318,1.236-4.948l.691-2.434.735-2.43c.525-1.617,1.082-3.275,1.78-4.872.673-1.606,1.427-3.16,2.212-4.685l.03-.06a1.555,1.555,0,0,1,2.094-.671,1.642,1.642,0,0,1,.156.092c1.393.937,2.764,1.911,4.129,2.9l4.032,3q4,2.983,8.177,5.755l.037.024a.806.806,0,0,1-.158,1.425c-2.022.775-4.045,1.43-6.07,2.09s-4.057,1.272-6.09,1.886l-6.082,1.88c-2.021.639-4.044,1.275-6.03,1.978l-.007,0a.7.7,0,1,1-.47-1.329Z" transform="translate(-517.886 -147.858)"/></g><path class="a" d="M534.726,178.6c.261,1.487.6,2.958.95,4.428s.758,2.926,1.176,4.38.816,2.91,1.119,4.387a18.148,18.148,0,0,1,.491,4.529v.014a.344.344,0,0,1-.652.139,18.072,18.072,0,0,1-1.379-4.34c-.319-1.479-.532-2.982-.75-4.482s-.419-3-.693-4.489-.557-2.971-.92-4.441a.336.336,0,0,1,.652-.16l0,.022Z" transform="translate(-4.888 -9.205)"/><path class="a" d="M541.081,209.045a.871.871,0,0,1-.921-.288.808.808,0,0,1-.173-.58,1.018,1.018,0,0,1,.269-.591.928.928,0,0,1,.685-.3,1,1,0,0,1,.789.427.824.824,0,0,1,.125.749.619.619,0,0,1-.591.459.335.335,0,0,1-.449-.5.272.272,0,0,0-.368-.037.144.144,0,0,0-.019.22.358.358,0,0,0,.329.14c.119-.022.159-.1.155-.162-.006-.111-.117-.247-.159-.2s.089.107.05.049a.335.335,0,1,1,.278.611Z" transform="translate(-6.679 -17.964)"/><path class="a" d="M542.156,215.2a.924.924,0,0,1-.9-.544.848.848,0,0,1-.02-.65,1.077,1.077,0,0,1,.447-.532.994.994,0,0,1,.786-.105,1.05,1.05,0,0,1,.678.66.885.885,0,0,1-.086.8.662.662,0,0,1-.727.31.335.335,0,0,1-.287-.606.268.268,0,0,0-.317-.169.11.11,0,0,0-.078.165.315.315,0,0,0,.255.2c.109,0,.154-.062.152-.117,0-.1-.1-.232-.139-.171s.1.173.1.1a.617.617,0,1,1,.636.644Z" transform="translate(-7.042 -19.788)"/></g></svg>