<svg xmlns="http://www.w3.org/2000/svg" width="17.845" height="14.502" viewBox="0 0 17.845 14.502"><defs><style>.a{fill:#fff;}</style></defs><path class="a" d="M17.846,49.673a7.321,7.321,0,0,1-2.1.576,3.672,3.672,0,0,0,1.61-2.026,7.329,7.329,0,0,1-2.325.888A3.665,3.665,0,0,0,8.79,52.451a10.394,10.394,0,0,1-7.546-3.825,3.665,3.665,0,0,0,1.133,4.888,3.646,3.646,0,0,1-1.658-.458c0,.015,0,.031,0,.046a3.664,3.664,0,0,0,2.937,3.59A3.665,3.665,0,0,1,2,56.755,3.665,3.665,0,0,0,5.421,59.3,7.345,7.345,0,0,1,.874,60.865,7.411,7.411,0,0,1,0,60.813a10.362,10.362,0,0,0,5.612,1.645A10.346,10.346,0,0,0,16.03,52.042q0-.238-.011-.474A7.438,7.438,0,0,0,17.846,49.673Z" transform="translate(-0.001 -47.956)"/></svg>